<?xml version="1.0" encoding="UTF-8" standalone="no"?>
<svg
   xmlns:dc="http://purl.org/dc/elements/1.1/"
   xmlns:cc="http://creativecommons.org/ns#"
   xmlns:rdf="http://www.w3.org/1999/02/22-rdf-syntax-ns#"
   xmlns:svg="http://www.w3.org/2000/svg"
   xmlns="http://www.w3.org/2000/svg"
   xmlns:sodipodi="http://sodipodi.sourceforge.net/DTD/sodipodi-0.dtd"
   xmlns:inkscape="http://www.inkscape.org/namespaces/inkscape"
   width="256"
   height="256"
   viewBox="0 0 67.733331 67.733331"
   version="1.1"
   id="svg8"
   sodipodi:docname="longterm.svg"
   inkscape:version="0.92.3 (2405546, 2018-03-11)"
   inkscape:export-xdpi="384"
   inkscape:export-ydpi="384">
  <sodipodi:namedview
     pagecolor="#ffffff"
     bordercolor="#666666"
     borderopacity="1"
     objecttolerance="10"
     gridtolerance="10"
     guidetolerance="10"
     inkscape:pageopacity="0"
     inkscape:pageshadow="2"
     inkscape:window-width="1920"
     inkscape:window-height="1019"
     id="namedview11"
     showgrid="true"
     inkscape:zoom="1"
     inkscape:cx="-136.98682"
     inkscape:cy="75.999895"
     inkscape:window-x="0"
     inkscape:window-y="0"
     inkscape:window-maximized="1"
     inkscape:current-layer="svg8">
    <inkscape:grid
       type="xygrid"
       id="grid818" />
  </sodipodi:namedview>
  <defs
     id="defs2" />
  <metadata
     id="metadata5">
    <rdf:RDF>
      <cc:Work
         rdf:about="">
        <dc:format>image/svg+xml</dc:format>
        <dc:type
           rdf:resource="http://purl.org/dc/dcmitype/StillImage" />
        <dc:title />
      </cc:Work>
    </rdf:RDF>
  </metadata>
  <path
     style="opacity:1;fill:#0db97e;fill-opacity:1;stroke:none;stroke-width:0.25;stroke-linecap:round;stroke-linejoin:round;stroke-miterlimit:4;stroke-dasharray:none;stroke-dashoffset:0;stroke-opacity:1;paint-order:stroke fill markers"
     d="M 31,5 C 16.595997,5 5,16.595996 5,31 v 194 c 0,14.404 11.595997,26 26,26 h 194 c 14.404,0 26,-11.596 26,-26 V 31 C 251,16.595996 239.404,5 225,5 Z"
     transform="scale(0.26458332)"
     id="rect819"
     inkscape:connector-curvature="0"
     sodipodi:nodetypes="sssssssss" />
  <path
     id="rect837"
     d="M 6.8791663,0 C 3.0681071,0 0,3.0681072 0,6.8791664 V 60.854163 c 0,3.811058 3.0681071,6.879167 6.8791663,6.879167 H 60.854164 c 3.811058,0 6.879166,-3.068109 6.879166,-6.879167 V 6.8791664 C 67.73333,3.0681072 64.665222,0 60.854164,0 Z M 8.2020826,1.3229166 H 59.531247 c 3.811058,0 6.879166,3.0681072 6.879166,6.8791664 v 51.329164 c 0,3.811058 -3.068108,6.879166 -6.879166,6.879166 H 8.2020826 c -3.8110589,0 -6.879166,-3.068108 -6.879166,-6.879166 V 8.202083 c 0,-3.8110592 3.0681071,-6.8791664 6.879166,-6.8791664 z"
     style="opacity:1;fill:#288668;fill-opacity:1;stroke:none;stroke-width:0.06614583;stroke-linecap:round;stroke-linejoin:round;stroke-miterlimit:4;stroke-dasharray:none;stroke-dashoffset:0;stroke-opacity:1;paint-order:stroke fill markers"
     inkscape:connector-curvature="0" />
  <g
     id="g827"
     transform="matrix(5.6666673,0,0,5.6666673,-62.618064,-58.120145)">
    <path
       inkscape:connector-curvature="0"
       id="path818"
       d="m 14.552083,12.170833 h 1.400735 v 1.400735 h -1.400735 z"
       style="fill:#ffffff;stroke:none;stroke-width:0.26458332px;stroke-linecap:butt;stroke-linejoin:miter;stroke-opacity:1"
       sodipodi:nodetypes="ccccc" />
    <path
       inkscape:connector-curvature="0"
       id="path820"
       d="m 14.552083,14.738847 h 1.400735 v 5.369485 h -1.400735 z"
       style="fill:#ffffff;stroke:none;stroke-width:0.26458332px;stroke-linecap:butt;stroke-linejoin:miter;stroke-opacity:1"
       sodipodi:nodetypes="ccccc" />
    <path
       inkscape:connector-curvature="0"
       id="path822"
       d="m 17.120097,12.170833 v 7.937499 h 2.801471 v -1.400735 h -1.400736 v -3.96875 h 1.400736 v -1.167279 h -1.400736 v -1.400735 z"
       style="fill:#ffffff;stroke:none;stroke-width:0.26458332px;stroke-linecap:butt;stroke-linejoin:miter;stroke-opacity:1"
       sodipodi:nodetypes="ccccccccccc" />
  </g>
</svg>
